<svg xmlns="http://www.w3.org/2000/svg" width="600" height="600" viewBox="0 0 600 600">
  <rect width="600" height="600" fill="#e5e7eb"/>
  <g opacity="0.5">
    <path d="M300 200c-27.614 0-50 22.386-50 50s22.386 50 50 50 50-22.386 50-50-22.386-50-50-50zm0 80c-16.569 0-30-13.431-30-30s13.431-30 30-30 30 13.431 30 30-13.431 30-30 30z" fill="#9ca3af"/>
    <path d="M450 150H150c-16.569 0-30 13.431-30 30v240c0 16.569 13.431 30 30 30h300c16.569 0 30-13.431 30-30V180c0-16.569-13.431-30-30-30zm10 270c0 5.514-4.486 10-10 10H150c-5.514 0-10-4.486-10-10V180c0-5.514 4.486-10 10-10h300c5.514 0 10 4.486 10 10v240z" fill="#9ca3af"/>
    <path d="M185 390l75-90 60 72 90-108 50 60v66H185z" fill="#9ca3af"/>
  </g>
  <text x="300" y="480" font-family="Arial, sans-serif" font-size="24" fill="#6b7280" text-anchor="middle">
    Sem Imagem
  </text>
</svg>
